<svg xmlns="http://www.w3.org/2000/svg" xmlns:xlink="http://www.w3.org/1999/xlink" viewBox="0 0 1440 350" width="1440" height="350" preserveAspectRatio="xMidYMid meet" style="width: 100%; height: 100%; transform: translate3d(0px, 0px, 0px); content-visibility: visible;"><defs><clipPath id="__lottie_element_3166"><rect width="1440" height="350" x="0" y="0"></rect></clipPath><g id="__lottie_element_3172"><g transform="matrix(1.3643399477005005,0,0,1,670,146.3040008544922)" opacity="1" style="display: block;"><g opacity="1" transform="matrix(1,0,0,1,-14.845999717712402,2.0859999656677246)"><path fill="url(#__lottie_element_3175)" mask="url(#__lottie_element_3177)" fill-opacity="1" d="M0 0 M795.95751953125,-558.45751953125 C795.95751953125,-558.45751953125 795.95751953125,558.45751953125 795.95751953125,558.45751953125 C795.95751953125,558.45751953125 -795.95751953125,558.45751953125 -795.95751953125,558.45751953125 C-795.95751953125,558.45751953125 -795.95751953125,-558.45751953125 -795.95751953125,-558.45751953125 C-795.95751953125,-558.45751953125 795.95751953125,-558.45751953125 795.95751953125,-558.45751953125z"></path><path stroke-linecap="butt" stroke-linejoin="miter" fill-opacity="0" stroke-miterlimit="4" stroke="rgb(158,158,158)" stroke-opacity="1" stroke-width="0" d=" M795.95751953125,-558.45751953125 C795.95751953125,-558.45751953125 795.95751953125,558.45751953125 795.95751953125,558.45751953125 C795.95751953125,558.45751953125 -795.95751953125,558.45751953125 -795.95751953125,558.45751953125 C-795.95751953125,558.45751953125 -795.95751953125,-558.45751953125 -795.95751953125,-558.45751953125 C-795.95751953125,-558.45751953125 795.95751953125,-558.45751953125 795.95751953125,-558.45751953125z"></path></g></g></g><linearGradient id="__lottie_element_3175" spreadMethod="pad" gradientUnits="userSpaceOnUse" x1="-183.47500610351562" y1="0" x2="738.010009765625" y2="0"><stop offset="0%" stop-color="rgb(255,255,255)"></stop><stop offset="50%" stop-color="rgb(255,255,255)"></stop><stop offset="100%" stop-color="rgb(255,255,255)"></stop></linearGradient><mask id="__lottie_element_3177"><path fill="url(#__lottie_element_3176)" d=" M795.95751953125,-558.45751953125 C795.95751953125,-558.45751953125 795.95751953125,558.45751953125 795.95751953125,558.45751953125 C795.95751953125,558.45751953125 -795.95751953125,558.45751953125 -795.95751953125,558.45751953125 C-795.95751953125,558.45751953125 -795.95751953125,-558.45751953125 -795.95751953125,-558.45751953125 C-795.95751953125,-558.45751953125 795.95751953125,-558.45751953125 795.95751953125,-558.45751953125z"></path></mask><linearGradient id="__lottie_element_3176" spreadMethod="pad" gradientUnits="userSpaceOnUse" x1="-183.47500610351562" y1="0" x2="738.010009765625" y2="0"><stop stop-color="rgb(255,255,255)" offset="54%" stop-opacity="1"></stop><stop stop-color="rgb(255,255,255)" offset="76%" stop-opacity="0.5"></stop><stop stop-color="rgb(255,255,255)" offset="98%" stop-opacity="0"></stop></linearGradient><mask id="__lottie_element_3172_1" mask-type="alpha"><use xlink:href="#__lottie_element_3172"></use></mask><g id="__lottie_element_3184"><g transform="matrix(1,0,0,1,720,146.3040008544922)" opacity="1" style="display: block;"><g opacity="1" transform="matrix(1,0,0,1,-14.845999717712402,2.0859999656677246)"><path fill="url(#__lottie_element_3187)" mask="url(#__lottie_element_3189)" fill-opacity="1" d="M0 0 M795.95751953125,-558.45751953125 C795.95751953125,-558.45751953125 795.95751953125,558.45751953125 795.95751953125,558.45751953125 C795.95751953125,558.45751953125 -795.95751953125,558.45751953125 -795.95751953125,558.45751953125 C-795.95751953125,558.45751953125 -795.95751953125,-558.45751953125 -795.95751953125,-558.45751953125 C-795.95751953125,-558.45751953125 795.95751953125,-558.45751953125 795.95751953125,-558.45751953125z"></path><path stroke-linecap="butt" stroke-linejoin="miter" fill-opacity="0" stroke-miterlimit="4" stroke="rgb(158,158,158)" stroke-opacity="1" stroke-width="0" d=" M795.95751953125,-558.45751953125 C795.95751953125,-558.45751953125 795.95751953125,558.45751953125 795.95751953125,558.45751953125 C795.95751953125,558.45751953125 -795.95751953125,558.45751953125 -795.95751953125,558.45751953125 C-795.95751953125,558.45751953125 -795.95751953125,-558.45751953125 -795.95751953125,-558.45751953125 C-795.95751953125,-558.45751953125 795.95751953125,-558.45751953125 795.95751953125,-558.45751953125z"></path></g></g></g><linearGradient id="__lottie_element_3187" spreadMethod="pad" gradientUnits="userSpaceOnUse" x1="-508.54400634765625" y1="0" x2="711.375" y2="0"><stop offset="0%" stop-color="rgb(255,255,255)"></stop><stop offset="50%" stop-color="rgb(255,255,255)"></stop><stop offset="100%" stop-color="rgb(255,255,255)"></stop></linearGradient><mask id="__lottie_element_3189"><path fill="url(#__lottie_element_3188)" d=" M795.95751953125,-558.45751953125 C795.95751953125,-558.45751953125 795.95751953125,558.45751953125 795.95751953125,558.45751953125 C795.95751953125,558.45751953125 -795.95751953125,558.45751953125 -795.95751953125,558.45751953125 C-795.95751953125,558.45751953125 -795.95751953125,-558.45751953125 -795.95751953125,-558.45751953125 C-795.95751953125,-558.45751953125 795.95751953125,-558.45751953125 795.95751953125,-558.45751953125z"></path></mask><linearGradient id="__lottie_element_3188" spreadMethod="pad" gradientUnits="userSpaceOnUse" x1="-508.54400634765625" y1="0" x2="711.375" y2="0"><stop stop-color="rgb(255,255,255)" offset="54%" stop-opacity="1"></stop><stop stop-color="rgb(255,255,255)" offset="76%" stop-opacity="0.5"></stop><stop stop-color="rgb(255,255,255)" offset="98%" stop-opacity="0"></stop></linearGradient><g id="__lottie_element_3193"><g transform="matrix(1,0,0,1,580,146.3040008544922)" opacity="1" style="display: block;"><g opacity="1" transform="matrix(1,0,0,1,-14.845999717712402,2.0859999656677246)"><path fill="url(#__lottie_element_3196)" mask="url(#__lottie_element_3198)" fill-opacity="1" d="M0 0 M795.95751953125,-558.45751953125 C795.95751953125,-558.45751953125 795.95751953125,558.45751953125 795.95751953125,558.45751953125 C795.95751953125,558.45751953125 -795.95751953125,558.45751953125 -795.95751953125,558.45751953125 C-795.95751953125,558.45751953125 -795.95751953125,-558.45751953125 -795.95751953125,-558.45751953125 C-795.95751953125,-558.45751953125 795.95751953125,-558.45751953125 795.95751953125,-558.45751953125z"></path><path stroke-linecap="butt" stroke-linejoin="miter" fill-opacity="0" stroke-miterlimit="4" stroke="rgb(158,158,158)" stroke-opacity="1" stroke-width="0" d=" M795.95751953125,-558.45751953125 C795.95751953125,-558.45751953125 795.95751953125,558.45751953125 795.95751953125,558.45751953125 C795.95751953125,558.45751953125 -795.95751953125,558.45751953125 -795.95751953125,558.45751953125 C-795.95751953125,558.45751953125 -795.95751953125,-558.45751953125 -795.95751953125,-558.45751953125 C-795.95751953125,-558.45751953125 795.95751953125,-558.45751953125 795.95751953125,-558.45751953125z"></path></g></g></g><linearGradient id="__lottie_element_3196" spreadMethod="pad" gradientUnits="userSpaceOnUse" x1="-508.54400634765625" y1="0" x2="711.375" y2="0"><stop offset="0%" stop-color="rgb(255,255,255)"></stop><stop offset="50%" stop-color="rgb(255,255,255)"></stop><stop offset="100%" stop-color="rgb(255,255,255)"></stop></linearGradient><mask id="__lottie_element_3198"><path fill="url(#__lottie_element_3197)" d=" M795.95751953125,-558.45751953125 C795.95751953125,-558.45751953125 795.95751953125,558.45751953125 795.95751953125,558.45751953125 C795.95751953125,558.45751953125 -795.95751953125,558.45751953125 -795.95751953125,558.45751953125 C-795.95751953125,558.45751953125 -795.95751953125,-558.45751953125 -795.95751953125,-558.45751953125 C-795.95751953125,-558.45751953125 795.95751953125,-558.45751953125 795.95751953125,-558.45751953125z"></path></mask><linearGradient id="__lottie_element_3197" spreadMethod="pad" gradientUnits="userSpaceOnUse" x1="-508.54400634765625" y1="0" x2="711.375" y2="0"><stop stop-color="rgb(255,255,255)" offset="54%" stop-opacity="1"></stop><stop stop-color="rgb(255,255,255)" offset="76%" stop-opacity="0.5"></stop><stop stop-color="rgb(255,255,255)" offset="98%" stop-opacity="0"></stop></linearGradient><g id="__lottie_element_3202"><g transform="matrix(1,0,0,1,810,146.3040008544922)" opacity="1" style="display: block;"><g opacity="1" transform="matrix(1,0,0,1,-14.845999717712402,2.0859999656677246)"><path fill="url(#__lottie_element_3205)" mask="url(#__lottie_element_3207)" fill-opacity="1" d="M0 0 M795.95751953125,-558.45751953125 C795.95751953125,-558.45751953125 795.95751953125,558.45751953125 795.95751953125,558.45751953125 C795.95751953125,558.45751953125 -795.95751953125,558.45751953125 -795.95751953125,558.45751953125 C-795.95751953125,558.45751953125 -795.95751953125,-558.45751953125 -795.95751953125,-558.45751953125 C-795.95751953125,-558.45751953125 795.95751953125,-558.45751953125 795.95751953125,-558.45751953125z"></path><path stroke-linecap="butt" stroke-linejoin="miter" fill-opacity="0" stroke-miterlimit="4" stroke="rgb(158,158,158)" stroke-opacity="1" stroke-width="0" d=" M795.95751953125,-558.45751953125 C795.95751953125,-558.45751953125 795.95751953125,558.45751953125 795.95751953125,558.45751953125 C795.95751953125,558.45751953125 -795.95751953125,558.45751953125 -795.95751953125,558.45751953125 C-795.95751953125,558.45751953125 -795.95751953125,-558.45751953125 -795.95751953125,-558.45751953125 C-795.95751953125,-558.45751953125 795.95751953125,-558.45751953125 795.95751953125,-558.45751953125z"></path></g></g></g><linearGradient id="__lottie_element_3205" spreadMethod="pad" gradientUnits="userSpaceOnUse" x1="-6.557000160217285" y1="0" x2="713.5070190429688" y2="4.9019999504089355"><stop offset="0%" stop-color="rgb(255,255,255)"></stop><stop offset="50%" stop-color="rgb(255,255,255)"></stop><stop offset="100%" stop-color="rgb(255,255,255)"></stop></linearGradient><mask id="__lottie_element_3207"><path fill="url(#__lottie_element_3206)" d=" M795.95751953125,-558.45751953125 C795.95751953125,-558.45751953125 795.95751953125,558.45751953125 795.95751953125,558.45751953125 C795.95751953125,558.45751953125 -795.95751953125,558.45751953125 -795.95751953125,558.45751953125 C-795.95751953125,558.45751953125 -795.95751953125,-558.45751953125 -795.95751953125,-558.45751953125 C-795.95751953125,-558.45751953125 795.95751953125,-558.45751953125 795.95751953125,-558.45751953125z"></path></mask><linearGradient id="__lottie_element_3206" spreadMethod="pad" gradientUnits="userSpaceOnUse" x1="-6.557000160217285" y1="0" x2="713.5070190429688" y2="4.9019999504089355"><stop stop-color="rgb(255,255,255)" offset="54%" stop-opacity="1"></stop><stop stop-color="rgb(255,255,255)" offset="76%" stop-opacity="0.5"></stop><stop stop-color="rgb(255,255,255)" offset="98%" stop-opacity="0"></stop></linearGradient><mask id="__lottie_element_3202_1" mask-type="alpha"><use xlink:href="#__lottie_element_3202"></use></mask><mask id="__lottie_element_3193_1" mask-type="alpha"><use xlink:href="#__lottie_element_3193"></use></mask><mask id="__lottie_element_3184_1" mask-type="alpha"><use xlink:href="#__lottie_element_3184"></use></mask></defs><g clip-path="url(#__lottie_element_3166)"><g mask="url(#__lottie_element_3172_1)" style="display: block;"><g transform="matrix(1,0,0,1,-1162.912109375,146.3040008544922)" opacity="1"><g opacity="1" transform="matrix(1,0,0,1,0,0)"><path stroke-linecap="butt" stroke-linejoin="miter" fill-opacity="0" stroke-miterlimit="10" stroke="rgb(255,255,255)" stroke-opacity="1" stroke-width="1" d=" M-1162.7669677734375,-72.91400146484375 C-924.572021484375,-72.91400146484375 -924.572021484375,49.58700180053711 -686.3770141601562,49.58700180053711 C-448.1860046386719,49.58700180053711 -448.1860046386719,-72.91400146484375 -209.9949951171875,-72.91400146484375 C28.200000762939453,-72.91400146484375 28.200000762939453,49.58700180053711 266.3949890136719,49.58700180053711 C504.5870056152344,49.58700180053711 504.5870056152344,-72.91400146484375 742.7789916992188,-72.91400146484375 C980.9819946289062,-72.91400146484375 980.9829711914062,49.58700180053711 1219.18603515625,49.58700180053711 C1457.3890380859375,49.58700180053711 1457.3890380859375,-72.91400146484375 1695.592041015625,-72.91400146484375"></path></g></g></g><g mask="url(#__lottie_element_3172_1)" style="display: block;"><g transform="matrix(1,0,0,1,-1162.912109375,146.3040008544922)" opacity="1"><g opacity="1" transform="matrix(1,0,0,1,0,0)"><path stroke-linecap="butt" stroke-linejoin="miter" fill-opacity="0" stroke-miterlimit="10" stroke="rgb(255,255,255)" stroke-opacity="1" stroke-width="1" d=" M1695.592041015625,-72.91400146484375 C1933.7869873046875,-72.91400146484375 1933.7869873046875,49.58700180053711 2171.98193359375,49.58700180053711 C2410.173095703125,49.58700180053711 2410.174072265625,-72.91400146484375 2648.364990234375,-72.91400146484375 C2886.56005859375,-72.91400146484375 2886.55908203125,49.58700180053711 3124.75390625,49.58700180053711 C3362.946044921875,49.58700180053711 3362.946044921875,-72.91400146484375 3601.137939453125,-72.91400146484375 C3839.341064453125,-72.91400146484375 3839.342041015625,49.58700180053711 4077.544921875,49.58700180053711 C4315.748046875,49.58700180053711 4315.7490234375,-72.91400146484375 4553.9521484375,-72.91400146484375"></path></g></g></g><g mask="url(#__lottie_element_3184_1)" style="display: block;"><g transform="matrix(1.899999976158142,0,0,1.2200000286102295,-4969.2783203125,171.78207397460938)" opacity="0.4"><g opacity="1" transform="matrix(1,0,0,1,0,0)"><path stroke-linecap="butt" stroke-linejoin="miter" fill-opacity="0" stroke-miterlimit="10" stroke="rgb(255,255,255)" stroke-opacity="1" stroke-width="0.5" d=" M1695.592041015625,-72.91400146484375 C1933.7869873046875,-72.91400146484375 1933.7869873046875,49.58700180053711 2171.98193359375,49.58700180053711 C2410.173095703125,49.58700180053711 2410.174072265625,-72.91400146484375 2648.364990234375,-72.91400146484375 C2886.56005859375,-72.91400146484375 2886.55908203125,49.58700180053711 3124.75390625,49.58700180053711 C3362.946044921875,49.58700180053711 3362.946044921875,-72.91400146484375 3601.137939453125,-72.91400146484375 C3839.341064453125,-72.91400146484375 3839.342041015625,49.58700180053711 4077.544921875,49.58700180053711 C4315.748046875,49.58700180053711 4315.7490234375,-72.91400146484375 4553.9521484375,-72.91400146484375"></path></g></g></g><g mask="url(#__lottie_element_3193_1)" style="display: block;"><g transform="matrix(1.2000000476837158,0,0,1.2200000286102295,-3107.08203125,231.78207397460938)" opacity="0.4"><g opacity="1" transform="matrix(1,0,0,1,0,0)"><path stroke-linecap="butt" stroke-linejoin="miter" fill-opacity="0" stroke-miterlimit="10" stroke="rgb(255,255,255)" stroke-opacity="1" stroke-width="0.5" d=" M1695.592041015625,-72.91400146484375 C1933.7869873046875,-72.91400146484375 1933.7869873046875,49.58700180053711 2171.98193359375,49.58700180053711 C2410.173095703125,49.58700180053711 2410.174072265625,-72.91400146484375 2648.364990234375,-72.91400146484375 C2886.56005859375,-72.91400146484375 2886.55908203125,49.58700180053711 3124.75390625,49.58700180053711 C3362.946044921875,49.58700180053711 3362.946044921875,-72.91400146484375 3601.137939453125,-72.91400146484375 C3839.341064453125,-72.91400146484375 3839.342041015625,49.58700180053711 4077.544921875,49.58700180053711 C4315.748046875,49.58700180053711 4315.7490234375,-72.91400146484375 4553.9521484375,-72.91400146484375"></path></g></g></g><g mask="url(#__lottie_element_3202_1)" style="display: block;"><g transform="matrix(2.799999952316284,0,0,1.2200000286102295,-7125.6396484375,171.78207397460938)" opacity="1"><g opacity="1" transform="matrix(1,0,0,1,0,0)"><path stroke-linecap="butt" stroke-linejoin="miter" fill-opacity="0" stroke-miterlimit="10" stroke="rgb(255,255,255)" stroke-opacity="1" stroke-width="0.3" d=" M1695.592041015625,-72.91400146484375 C1933.7869873046875,-72.91400146484375 1933.7869873046875,49.58700180053711 2171.98193359375,49.58700180053711 C2410.173095703125,49.58700180053711 2410.174072265625,-72.91400146484375 2648.364990234375,-72.91400146484375 C2886.56005859375,-72.91400146484375 2886.55908203125,49.58700180053711 3124.75390625,49.58700180053711 C3362.946044921875,49.58700180053711 3362.946044921875,-72.91400146484375 3601.137939453125,-72.91400146484375 C3839.341064453125,-72.91400146484375 3839.342041015625,49.58700180053711 4077.544921875,49.58700180053711 C4315.748046875,49.58700180053711 4315.7490234375,-72.91400146484375 4553.9521484375,-72.91400146484375"></path></g></g></g></g></svg>