<svg width="140" height="20" viewBox="0 0 140 20" fill="none" xmlns="http://www.w3.org/2000/svg">
<g clip-path="url(#clip0_10437_107657)">
<rect width="30" height="20" fill="#F0F2F9"/>
<g clip-path="url(#clip1_10437_107657)">
<path d="M19.6607 6.67187C19.6607 8.41371 18.0531 10.4687 15.6209 10.4687H13.2782L13.1632 11.1942L12.6167 14.6875H9.70508L11.4565 3.4375H16.1738C17.7623 3.4375 19.0119 4.3228 19.4721 5.55327C19.6032 5.90163 19.6671 6.27876 19.6607 6.67187Z" fill="#002991"/>
<path d="M21.3386 9.90625C21.0158 11.8558 19.3379 13.2813 17.3531 13.2813H15.7264L15.0488 17.5H12.1532L12.6166 14.6875L13.1631 11.1942L13.2782 10.4688H15.6209C18.0499 10.4688 19.6607 8.41371 19.6607 6.67188C20.856 7.28871 21.5527 8.53516 21.3386 9.90625Z" fill="#60CDFF"/>
<path d="M19.6607 6.67187C19.1589 6.4098 18.5516 6.25 17.8901 6.25H13.9398L13.2782 10.4688H15.6209C18.0499 10.4688 19.6607 8.41371 19.6607 6.67187Z" fill="#008CFF"/>
</g>
</g>
<g clip-path="url(#clip2_10437_107657)">
<rect x="34" width="30" height="20" fill="#001C64"/>
<path fill-rule="evenodd" clip-rule="evenodd" d="M49.1078 8.4004C49.0969 9.33758 49.9405 9.85967 50.5762 10.1712C51.2292 10.49 51.4484 10.6946 51.4459 10.9797C51.441 11.4164 50.9247 11.6088 50.442 11.6163C49.599 11.6295 49.1097 11.3877 48.7197 11.2053L48.4161 12.631C48.8076 12.8114 49.531 12.9688 50.2809 12.9767C52.0428 12.9767 53.1949 12.1035 53.2005 10.7506C53.2079 9.03371 50.8348 8.93895 50.8511 8.17177C50.8565 7.93855 51.0777 7.69048 51.5623 7.62677C51.8024 7.59556 52.4651 7.57121 53.2157 7.91798L53.5103 6.53839C53.1065 6.39137 52.5877 6.25 51.9414 6.25C50.2839 6.25 49.1172 7.13435 49.1078 8.4004ZM56.3436 6.36895C56.0216 6.36895 55.7501 6.55677 55.6297 6.84613L53.1133 12.8749H54.874L55.2239 11.9029H57.3751L57.5778 12.8749H59.1287L57.7749 6.36895H56.3436ZM56.5893 8.12685L57.0974 10.5697H55.7065L56.5893 8.12685ZM46.9743 6.36895L45.587 12.8749H47.2641L48.6509 6.36895H46.9743ZM44.4931 6.36895L42.7476 10.797L42.0416 7.0321C41.9589 6.61177 41.6316 6.36895 41.2682 6.36895H38.4145L38.375 6.55758C38.9606 6.68548 39.6263 6.89161 40.0295 7.11129C40.2763 7.24581 40.3466 7.36314 40.4278 7.68274L41.7649 12.8749H43.5375L46.2545 6.36895H44.4931Z" fill="white"/>
</g>
<g clip-path="url(#clip3_10437_107657)">
<rect x="68" width="30" height="20" fill="white"/>
<rect x="68" width="30" height="20" fill="url(#paint0_linear_10437_107657)"/>
<rect x="68" width="30" height="20" fill="url(#paint1_radial_10437_107657)"/>
<g clip-path="url(#clip4_10437_107657)">
<path d="M89.8472 15.32V15.3482H89.8738C89.8787 15.3482 89.8837 15.347 89.888 15.3446C89.8897 15.3434 89.8911 15.3417 89.8921 15.3399C89.893 15.338 89.8935 15.3359 89.8934 15.3338C89.8934 15.3318 89.893 15.3297 89.8921 15.3279C89.8911 15.3261 89.8897 15.3245 89.888 15.3233C89.8837 15.3208 89.8788 15.3195 89.8738 15.3198H89.8472V15.32ZM89.874 15.3001C89.8854 15.2994 89.8967 15.3027 89.906 15.3093C89.9097 15.3123 89.9126 15.3161 89.9146 15.3204C89.9165 15.3247 89.9174 15.3294 89.9172 15.3342C89.9173 15.3382 89.9166 15.3423 89.9151 15.3461C89.9135 15.3498 89.9112 15.3532 89.9082 15.356C89.9011 15.3621 89.8921 15.3658 89.8827 15.3665L89.9183 15.4066H89.8909L89.8581 15.3668H89.8475V15.4066H89.8245V15.3002H89.8744L89.874 15.3001ZM89.8669 15.4433C89.879 15.4434 89.8909 15.441 89.9019 15.4362C89.9126 15.4317 89.9222 15.4252 89.9304 15.4172C89.9386 15.4091 89.9452 15.3996 89.9497 15.3891C89.9591 15.3668 89.9591 15.3418 89.9497 15.3195C89.9451 15.309 89.9386 15.2995 89.9304 15.2914C89.9222 15.2833 89.9125 15.2768 89.9019 15.2723C89.8908 15.2678 89.8789 15.2656 89.8669 15.2657C89.8547 15.2656 89.8426 15.2678 89.8313 15.2723C89.8204 15.2767 89.8105 15.2832 89.8021 15.2914C89.7895 15.3041 89.781 15.3202 89.7776 15.3377C89.7742 15.3552 89.7761 15.3733 89.7831 15.3898C89.7874 15.4003 89.7939 15.4099 89.8021 15.4179C89.8105 15.426 89.8204 15.4325 89.8313 15.4369C89.8425 15.4417 89.8547 15.4441 89.8669 15.444V15.4433ZM89.8669 15.2401C89.8982 15.2401 89.9283 15.2522 89.9507 15.2739C89.9614 15.2842 89.97 15.2966 89.9759 15.3103C89.982 15.3244 89.9851 15.3395 89.9851 15.3548C89.9851 15.3701 89.982 15.3852 89.9759 15.3993C89.9699 15.4129 89.9613 15.4252 89.9507 15.4357C89.9397 15.4461 89.927 15.4544 89.9131 15.4603C89.8985 15.4665 89.8828 15.4696 89.8669 15.4695C89.8509 15.4696 89.8349 15.4665 89.8202 15.4603C89.8061 15.4545 89.7932 15.4462 89.7823 15.4357C89.7716 15.4249 89.7632 15.4121 89.7574 15.3981C89.7513 15.384 89.7482 15.3689 89.7482 15.3536C89.7482 15.3383 89.7513 15.3232 89.7574 15.3091C89.7633 15.2955 89.7719 15.2831 89.7827 15.2727C89.7935 15.262 89.8063 15.2536 89.8205 15.2481C89.8353 15.2419 89.8512 15.2388 89.8673 15.2389L89.8669 15.2401ZM78.9521 14.8294C78.9521 14.6266 79.0868 14.46 79.307 14.46C79.5174 14.46 79.6594 14.6194 79.6594 14.8294C79.6594 15.0394 79.5174 15.1988 79.307 15.1988C79.0868 15.1988 78.9521 15.0322 78.9521 14.8294ZM79.8993 14.8294V14.2523H79.6449V14.3929C79.5642 14.289 79.4418 14.2238 79.2754 14.2238C78.9475 14.2238 78.6901 14.4774 78.6901 14.8297C78.6901 15.1819 78.9473 15.4355 79.2754 15.4355C79.4417 15.4355 79.5642 15.3703 79.6449 15.2665V15.4066H79.899V14.8294H79.8993ZM88.4954 14.8294C88.4954 14.6266 88.6302 14.46 88.8504 14.46C89.0611 14.46 89.2028 14.6194 89.2028 14.8294C89.2028 15.0394 89.0611 15.1988 88.8504 15.1988C88.6302 15.1988 88.4954 15.0322 88.4954 14.8294ZM89.4429 14.8294V13.7891H89.1883V14.3929C89.1076 14.289 88.9852 14.2238 88.8188 14.2238C88.4909 14.2238 88.2335 14.4774 88.2335 14.8297C88.2335 15.1819 88.4907 15.4355 88.8188 15.4355C88.9852 15.4355 89.1076 15.3703 89.1883 15.2665V15.4066H89.4429V14.8294ZM83.0568 14.4481C83.2208 14.4481 83.3261 14.5495 83.353 14.728H82.7459C82.7731 14.5614 82.8756 14.4481 83.0569 14.4481H83.0568ZM83.062 14.2232C82.7191 14.2232 82.4792 14.4692 82.4792 14.829C82.4792 15.1959 82.7287 15.4349 83.079 15.4349C83.2552 15.4349 83.4166 15.3915 83.5586 15.2732L83.4339 15.0873C83.3358 15.1646 83.211 15.208 83.0936 15.208C82.9296 15.208 82.7803 15.1331 82.7436 14.9254H83.6123C83.6148 14.8942 83.6174 14.8627 83.6174 14.829C83.6148 14.4693 83.3893 14.2231 83.0618 14.2231L83.062 14.2232ZM86.1334 14.829C86.1334 14.6262 86.2681 14.4596 86.4883 14.4596C86.6988 14.4596 86.8407 14.619 86.8407 14.829C86.8407 15.0389 86.6988 15.1984 86.4883 15.1984C86.2681 15.1984 86.1333 15.0318 86.1333 14.829H86.1334ZM87.0805 14.829V14.2523H86.8263V14.3929C86.7453 14.289 86.6232 14.2238 86.4567 14.2238C86.1288 14.2238 85.8715 14.4774 85.8715 14.8297C85.8715 15.1819 86.1287 15.4355 86.4567 15.4355C86.6232 15.4355 86.7453 15.3703 86.8263 15.2665V15.4066H87.0806V14.8294L87.0805 14.829ZM84.6967 14.829C84.6967 15.179 84.9438 15.4348 85.3209 15.4348C85.4971 15.4348 85.6145 15.3962 85.7414 15.2973L85.6192 15.0945C85.5237 15.1622 85.4234 15.1984 85.3127 15.1984C85.1096 15.1959 84.9603 15.0511 84.9603 14.829C84.9603 14.6068 85.1096 14.4621 85.3127 14.4596C85.4231 14.4596 85.5234 14.4958 85.6192 14.5635L85.7414 14.3607C85.6143 14.2618 85.4969 14.2231 85.3209 14.2231C84.9438 14.2231 84.6967 14.4789 84.6967 14.829ZM87.9764 14.2231C87.8297 14.2231 87.7341 14.2908 87.668 14.3922V14.2523H87.4159V15.4059H87.6705V14.7592C87.6705 14.5683 87.7537 14.4623 87.92 14.4623C87.9745 14.4615 88.0286 14.4713 88.0791 14.4913L88.1576 14.2548C88.1012 14.233 88.0278 14.2233 87.9763 14.2233L87.9764 14.2231ZM81.1571 14.344C81.0347 14.2645 80.866 14.2233 80.68 14.2233C80.3836 14.2233 80.1928 14.3634 80.1928 14.5926C80.1928 14.7807 80.3348 14.8968 80.5964 14.933L80.7166 14.9499C80.8561 14.9692 80.922 15.0054 80.922 15.0706C80.922 15.1598 80.8293 15.2107 80.6553 15.2107C80.4791 15.2107 80.3519 15.1551 80.2662 15.09L80.1467 15.2856C80.2862 15.387 80.4624 15.4353 80.6532 15.4353C80.9911 15.4353 81.1869 15.2784 81.1869 15.0588C81.1869 14.856 81.0328 14.7499 80.7781 14.7137L80.6582 14.6965C80.5481 14.6825 80.4599 14.6606 80.4599 14.5833C80.4599 14.4989 80.5431 14.4482 80.6826 14.4482C80.832 14.4482 80.9765 14.5037 81.0474 14.5471L81.1575 14.3443L81.1571 14.344ZM84.4397 14.2235C84.293 14.2235 84.1974 14.2912 84.1316 14.3926V14.2523H83.8794V15.4059H84.1339V14.7592C84.1339 14.5683 84.217 14.4623 84.3833 14.4623C84.4378 14.4615 84.4919 14.4713 84.5424 14.4913L84.6209 14.2548C84.5645 14.233 84.4911 14.2233 84.4396 14.2233L84.4397 14.2235ZM82.2687 14.2523H81.8527V13.9023H81.5955V14.2523H81.3582V14.4816H81.5955V15.0079C81.5955 15.2755 81.7009 15.435 82.0019 15.435C82.1123 15.435 82.2394 15.4012 82.3201 15.3458L82.2466 15.1309C82.1707 15.1743 82.0875 15.1962 82.0214 15.1962C81.8942 15.1962 81.8527 15.1189 81.8527 15.0031V14.4818H82.2687V14.2523ZM78.4652 15.4062V14.6822C78.4652 14.4095 78.2889 14.2261 78.0049 14.2236C77.8556 14.2212 77.7015 14.267 77.5937 14.4289C77.513 14.3009 77.3858 14.2236 77.207 14.2236C77.0821 14.2236 76.96 14.2598 76.8644 14.3949V14.2523H76.6097V15.4059H76.8664V14.7663C76.8664 14.566 76.979 14.4596 77.1529 14.4596C77.3219 14.4596 77.4073 14.5682 77.4073 14.7637V15.4058H77.6645V14.7661C77.6645 14.5659 77.7819 14.4594 77.9508 14.4594C78.1245 14.4594 78.2074 14.568 78.2074 14.7636V15.4056L78.4652 15.4062Z" fill="#231F20"/>
<path d="M89.9924 11.5691V11.4004H89.9479L89.8963 11.5162L89.8451 11.4004H89.8004V11.5691H89.832V11.442L89.8802 11.5517H89.913L89.9612 11.4417V11.5691H89.9925H89.9924ZM89.7098 11.5691V11.4293H89.7668V11.4008H89.6211V11.4293H89.6781V11.5691H89.7095H89.7098Z" fill="#F79410"/>
<path d="M84.9285 12.2924H81.0731V5.45996H84.9286L84.9285 12.2924Z" fill="#FF5F00"/>
<path d="M81.3177 8.87652C81.3177 7.49056 81.9758 6.25595 83.0006 5.46031C82.2249 4.85716 81.2655 4.52982 80.2776 4.53125C77.8442 4.53125 75.8717 6.47667 75.8717 8.87652C75.8717 11.2764 77.8442 13.2218 80.2776 13.2218C81.2655 13.2232 82.2249 12.8959 83.0006 12.2927C81.9759 11.4972 81.3177 10.2625 81.3177 8.87652Z" fill="#EB001B"/>
<path d="M90.1301 8.87652C90.1301 11.2764 88.1576 13.2218 85.7242 13.2218C84.7363 13.2232 83.7767 12.8959 83.0009 12.2927C84.0259 11.4971 84.684 10.2625 84.684 8.87652C84.684 7.49049 84.0259 6.25595 83.0009 5.46031C83.7767 4.85718 84.7362 4.52984 85.7241 4.53125C88.1575 4.53125 90.1301 6.47667 90.1301 8.87652" fill="#F79E1B"/>
</g>
</g>
<path d="M105.548 13.428C105.368 13.428 105.272 13.332 105.272 13.152V11.196H103.424C103.244 11.196 103.148 11.1 103.148 10.92V10.428C103.148 10.248 103.244 10.152 103.424 10.152H105.272V8.208C105.272 8.028 105.368 7.932 105.548 7.932H106.04C106.22 7.932 106.316 8.028 106.316 8.208V10.152H108.176C108.356 10.152 108.452 10.248 108.452 10.428V10.92C108.452 11.1 108.356 11.196 108.176 11.196H106.316V13.152C106.316 13.332 106.22 13.428 106.04 13.428H105.548ZM110.65 15C110.47 15 110.374 14.904 110.374 14.724V8.976C110.362 8.796 110.458 8.7 110.638 8.7H111.286C111.466 8.7 111.562 8.796 111.562 8.976V9.552C111.898 9 112.462 8.52 113.542 8.52C114.478 8.52 115.114 8.94 115.438 9.684C115.81 9.144 116.374 8.52 117.61 8.52C119.11 8.52 119.818 9.516 119.818 11.124V14.724C119.818 14.904 119.722 15 119.542 15H118.87C118.69 15 118.594 14.904 118.594 14.724V11.604C118.594 10.32 118.222 9.552 117.226 9.552C116.242 9.552 115.702 10.392 115.702 11.376V14.724C115.702 14.904 115.606 15 115.426 15H114.754C114.574 15 114.478 14.904 114.478 14.724V11.604C114.478 10.332 114.118 9.552 113.11 9.552C112.126 9.552 111.586 10.38 111.586 11.388V14.724C111.586 14.904 111.49 15 111.31 15H110.65ZM124.507 15.156C122.491 15.156 121.339 13.788 121.339 11.868C121.339 9.912 122.563 8.532 124.531 8.532C126.487 8.532 127.711 9.912 127.711 11.868C127.711 13.788 126.523 15.156 124.507 15.156ZM124.495 14.148C125.695 14.148 126.379 13.248 126.379 11.856C126.379 10.512 125.683 9.54 124.495 9.54C123.319 9.54 122.623 10.512 122.623 11.856C122.623 13.248 123.307 14.148 124.495 14.148ZM131.795 9.636C130.775 9.636 130.523 10.476 130.523 11.736V14.724C130.523 14.904 130.427 15 130.247 15H129.587C129.407 15 129.311 14.904 129.311 14.724V8.976C129.299 8.796 129.395 8.7 129.575 8.7H130.187C130.367 8.7 130.463 8.796 130.463 8.976V9.504C130.667 8.916 131.279 8.544 131.987 8.544H132.011C132.215 8.544 132.299 8.616 132.299 8.832V9.336C132.299 9.492 132.299 9.66 132.131 9.66C132.035 9.66 131.915 9.636 131.795 9.636ZM136.225 15.156C134.281 15.156 133.069 13.848 133.069 11.88C133.069 9.912 134.329 8.52 136.225 8.52C138.277 8.52 139.225 10.08 139.225 11.772V11.892C139.225 12.072 139.129 12.168 138.949 12.168H134.293C134.341 13.272 135.049 14.148 136.273 14.148C137.041 14.148 137.449 13.824 137.761 13.38C137.845 13.26 137.953 13.2 138.097 13.2H138.757C138.925 13.2 139.021 13.26 139.021 13.356C139.021 13.404 138.997 13.476 138.949 13.572C138.505 14.46 137.617 15.156 136.225 15.156ZM134.341 11.208H137.965C137.857 10.212 137.233 9.504 136.201 9.504C135.217 9.504 134.461 10.152 134.341 11.208Z" fill="#545D68"/>
<defs>
<linearGradient id="paint0_linear_10437_107657" x1="68" y1="0.462963" x2="98.4835" y2="18.4385" gradientUnits="userSpaceOnUse">
<stop offset="0.273366" stop-color="white"/>
<stop offset="0.777565" stop-color="#F0F0F0"/>
<stop offset="1" stop-color="#DFDFDF"/>
</linearGradient>
<radialGradient id="paint1_radial_10437_107657" cx="0" cy="0" r="1" gradientUnits="userSpaceOnUse" gradientTransform="translate(82.375 9.33333) rotate(87.2475) scale(13.015 19.5276)">
<stop stop-color="white"/>
<stop offset="1" stop-color="#E9E9E9"/>
</radialGradient>
<clipPath id="clip0_10437_107657">
<rect width="30" height="20" rx="4" fill="white"/>
</clipPath>
<clipPath id="clip1_10437_107657">
<rect width="11.6719" height="14.0625" fill="white" transform="translate(9.70508 3.4375)"/>
</clipPath>
<clipPath id="clip2_10437_107657">
<rect x="34" width="30" height="20" rx="4" fill="white"/>
</clipPath>
<clipPath id="clip3_10437_107657">
<rect x="68" width="30" height="20" rx="4" fill="white"/>
</clipPath>
<clipPath id="clip4_10437_107657">
<rect width="14.2566" height="10.9375" fill="white" transform="translate(75.8717 4.53125)"/>
</clipPath>
</defs>
</svg>
