<svg width="24" height="24" viewBox="0 0 24 24" fill="none" xmlns="http://www.w3.org/2000/svg">
<path d="M6.94043 5.001C6.94017 5.53143 6.7292 6.04004 6.35394 6.41492C5.97868 6.78981 5.46986 7.00027 4.93943 7C4.409 6.99974 3.90039 6.78877 3.52551 6.41351C3.15062 6.03825 2.94016 5.52943 2.94043 4.999C2.9407 4.46857 3.15166 3.95996 3.52692 3.58508C3.90218 3.21019 4.411 2.99974 4.94143 3C5.47186 3.00027 5.98047 3.21123 6.35535 3.58649C6.73024 3.96175 6.9407 4.47057 6.94043 5.001ZM7.00043 8.481H3.00043V21.001H7.00043V8.481ZM13.3204 8.481H9.34043V21.001H13.2804V14.431C13.2804 10.771 18.0504 10.431 18.0504 14.431V21.001H22.0004V13.071C22.0004 6.901 14.9404 7.131 13.2804 10.161L13.3204 8.481Z" fill="#ffffff"/>
</svg>
